<?xml version="1.0" encoding="utf-8" standalone="no"?>
<!DOCTYPE svg PUBLIC "-//W3C//DTD SVG 1.1//EN"
  "http://www.w3.org/Graphics/SVG/1.1/DTD/svg11.dtd">
<!-- Created with matplotlib (http://matplotlib.org/) -->
<svg height="403pt" version="1.1" viewBox="0 0 511 403" width="511pt" xmlns="http://www.w3.org/2000/svg" xmlns:xlink="http://www.w3.org/1999/xlink">
 <defs>
  <style type="text/css">
*{stroke-linecap:square;stroke-linejoin:round;}
  </style>
 </defs>
 <g id="figure_1">
  <g id="patch_1">
   <path d="
M0 403.307
L511.297 403.307
L511.297 0
L0 0
z
" style="fill:#ffffff;"/>
  </g>
  <g id="axes_1">
   <g id="patch_2">
    <path d="
M54.885 368.742
L501.285 368.742
L501.285 23.1417
L54.885 23.1417
z
" style="fill:#ffffff;"/>
   </g>
   <g id="line2d_1">
    <path clip-path="url(#p2dd505b008)" d="
M54.885 326.717
L56.0883 332.597
L57.2915 337.521
L58.4948 341.592
L59.6981 344.908
L60.9013 347.559
L62.1046 349.623
L63.3079 351.169
L64.5111 352.25
L65.3133 352.733
L66.1155 353.038
L66.9177 353.17
L67.7198 353.133
L68.522 352.928
L69.3242 352.554
L70.1264 352.008
L71.3296 350.851
L72.5329 349.265
L73.7362 347.213
L74.9394 344.651
L76.1427 341.529
L77.346 337.793
L78.5492 333.389
L79.7525 328.263
L80.9558 322.361
L82.5601 313.21
L84.1645 302.516
L85.7688 290.229
L87.3732 276.346
L89.3786 256.829
L91.3841 235.129
L93.7906 206.758
L98.2026 151.337
L101.411 112.003
L103.818 85.2807
L105.422 69.5085
L107.027 55.7476
L108.23 46.9011
L109.433 39.4077
L110.636 33.3203
L111.84 28.6648
L112.642 26.3575
L113.444 24.6802
L114.246 23.6213
L114.647 23.3188
L115.048 23.1645
L115.449 23.1555
L115.85 23.289
L116.252 23.5616
L117.054 24.5103
L117.856 25.9713
L118.658 27.9113
L119.861 31.6402
L121.065 36.2355
L122.669 43.4716
L124.674 53.8255
L128.284 74.1681
L131.493 91.7325
L133.498 101.506
L135.103 108.33
L136.707 114.092
L137.91 117.635
L139.114 120.459
L139.916 121.922
L140.718 123.039
L141.52 123.802
L142.322 124.203
L143.125 124.239
L143.927 123.903
L144.729 123.195
L145.531 122.114
L146.333 120.659
L147.135 118.834
L148.339 115.411
L149.542 111.188
L150.745 106.201
L152.35 98.4518
L153.954 89.6006
L155.959 77.3422
L161.976 39.5366
L163.179 33.456
L164.382 28.508
L165.184 25.9929
L165.987 24.2156
L166.388 23.6336
L166.789 23.2718
L167.19 23.142
L167.591 23.2557
L167.992 23.6243
L168.393 24.2587
L168.794 25.1698
L169.596 27.8618
L170.399 31.7756
L171.201 36.9764
L172.003 43.5163
L173.206 55.9139
L174.409 71.4536
L175.613 90.0789
L177.217 119.387
L178.821 153.06
L181.228 208.95
L184.437 283.91
L186.041 316.59
L187.244 337.072
L188.448 353.068
L189.25 360.834
L190.052 366.043
L190.453 367.636
L190.854 368.534
L191.255 368.722
L191.656 368.191
L192.057 366.935
L192.458 364.95
L193.261 358.799
L194.063 349.786
L194.865 338.015
L196.068 315.561
L197.272 288.074
L198.876 245.446
L204.491 88.2323
L205.694 62.7005
L206.497 48.8021
L207.299 37.7219
L208.101 29.6674
L208.502 26.8222
L208.903 24.7819
L209.304 23.554
L209.705 23.1418
L210.106 23.544
L210.507 24.7554
L210.909 26.7667
L211.711 33.1308
L212.513 42.4821
L213.315 54.6085
L214.518 77.4122
L215.722 104.787
L217.727 157.186
L221.738 265.389
L223.342 302.036
L224.546 324.977
L225.749 343.361
L226.551 352.899
L227.353 360.195
L228.155 365.238
L228.556 366.921
L228.958 368.053
L229.359 368.644
L229.76 368.702
L230.161 368.241
L230.562 367.275
L230.963 365.819
L231.765 361.507
L232.567 355.453
L233.37 347.823
L234.573 333.808
L236.177 311.288
L238.183 279.032
L244.6 172.135
L246.605 143.665
L248.21 123.642
L249.814 106.19
L251.419 91.2788
L253.023 78.7804
L254.226 70.8733
L255.429 64.1154
L256.633 58.4021
L257.836 53.6276
L259.039 49.6891
L260.242 46.4899
L261.446 43.9421
L262.649 41.9684
L263.852 40.5036
L265.056 39.4955
L265.858 39.0574
L266.66 38.7964
L267.462 38.7069
L268.264 38.7859
L269.066 39.0328
L269.869 39.4494
L271.072 40.4023
L272.275 41.7695
L273.478 43.5835
L274.682 45.8848
L275.885 48.7205
L277.088 52.1424
L278.291 56.2052
L279.495 60.9638
L280.698 66.4717
L282.302 75.0648
L283.907 85.1724
L285.511 96.8586
L287.115 110.146
L289.121 128.957
L291.126 150.035
L293.533 177.837
L297.143 222.763
L301.555 277.521
L303.961 304.505
L305.967 324.211
L307.571 337.701
L308.774 346.327
L309.977 353.589
L311.181 359.439
L311.983 362.543
L312.785 365.009
L313.587 366.843
L314.389 368.055
L315.192 368.66
L315.593 368.741
L315.994 368.679
L316.395 368.475
L317.197 367.66
L317.999 366.324
L318.801 364.5
L319.604 362.224
L320.807 358.046
L322.01 353.068
L323.614 345.433
L325.62 334.758
L332.84 295.111
L334.444 287.703
L336.048 281.26
L337.252 277.153
L338.455 273.727
L339.658 271.027
L340.46 269.649
L341.262 268.62
L342.065 267.947
L342.867 267.637
L343.669 267.694
L344.471 268.122
L345.273 268.923
L346.075 270.098
L346.878 271.646
L348.081 274.659
L349.284 278.486
L350.487 283.096
L352.092 290.386
L353.696 298.848
L355.702 310.754
L359.311 334.089
L361.718 348.976
L363.322 357.484
L364.526 362.643
L365.328 365.327
L366.13 367.298
L366.932 368.459
L367.333 368.706
L367.734 368.716
L368.135 368.476
L368.536 367.976
L368.938 367.204
L369.74 364.807
L370.542 361.205
L371.344 356.331
L372.146 350.13
L372.948 342.56
L374.152 328.592
L375.355 311.495
L376.558 291.385
L378.163 260.324
L380.168 216.089
L385.783 86.931
L386.987 64.5472
L388.19 46.1985
L388.992 36.6443
L389.794 29.5005
L390.596 24.9579
L390.997 23.7107
L391.398 23.1666
L391.8 23.3369
L392.201 24.2298
L392.602 25.8502
L393.003 28.1994
L393.805 35.0721
L394.607 44.787
L395.409 57.2243
L396.613 80.5796
L397.816 108.81
L399.42 152.115
L404.634 298.914
L405.838 325.298
L407.041 346.125
L407.843 356.466
L408.645 363.739
L409.046 366.183
L409.447 367.817
L409.849 368.638
L410.25 368.642
L410.651 367.834
L411.052 366.222
L411.453 363.815
L412.255 356.688
L413.057 346.621
L413.859 333.84
L415.063 310.195
L416.667 272.075
L419.074 206.94
L421.881 131.481
L423.486 94.077
L424.689 70.4262
L425.892 51.2521
L426.694 41.1602
L427.496 33.3008
L428.299 27.6957
L429.101 24.3278
L429.502 23.4678
L429.903 23.1449
L430.304 23.3478
L430.705 24.0631
L431.106 25.2761
L431.908 29.1292
L432.711 34.7623
L433.513 42.0143
L434.716 55.5465
L435.919 71.7165
L437.524 96.3035
L440.331 143.734
L443.941 204.236
L445.947 234.438
L447.952 261.032
L449.556 279.451
L451.161 295.305
L452.765 308.688
L454.369 319.775
L455.573 326.717
L455.573 326.717" style="fill:none;stroke:#ff0000;stroke-dasharray:6.000000,6.000000;stroke-dashoffset:0.0;stroke-linecap:butt;stroke-width:2.0;"/>
   </g>
   <g id="matplotlib.axis_1">
    <g id="xtick_1">
     <g id="line2d_2">
      <defs>
       <path d="
M0 0
L0 -4" id="mcb557df647" style="stroke:#000000;stroke-linecap:butt;stroke-width:0.5;"/>
      </defs>
      <g>
       <use style="stroke:#000000;stroke-linecap:butt;stroke-width:0.5;" x="54.885" xlink:href="#mcb557df647" y="368.74175"/>
      </g>
     </g>
     <g id="line2d_3">
      <defs>
       <path d="
M0 0
L0 4" id="mdad270ee8e" style="stroke:#000000;stroke-linecap:butt;stroke-width:0.5;"/>
      </defs>
      <g>
       <use style="stroke:#000000;stroke-linecap:butt;stroke-width:0.5;" x="54.885" xlink:href="#mdad270ee8e" y="23.14175"/>
      </g>
     </g>
     <g id="text_1">
      <!-- 0 -->
      <defs>
       <path d="
M31.7812 66.4062
Q24.1719 66.4062 20.3281 58.9062
Q16.5 51.4219 16.5 36.375
Q16.5 21.3906 20.3281 13.8906
Q24.1719 6.39062 31.7812 6.39062
Q39.4531 6.39062 43.2812 13.8906
Q47.125 21.3906 47.125 36.375
Q47.125 51.4219 43.2812 58.9062
Q39.4531 66.4062 31.7812 66.4062
M31.7812 74.2188
Q44.0469 74.2188 50.5156 64.5156
Q56.9844 54.8281 56.9844 36.375
Q56.9844 17.9688 50.5156 8.26562
Q44.0469 -1.42188 31.7812 -1.42188
Q19.5312 -1.42188 13.0625 8.26562
Q6.59375 17.9688 6.59375 36.375
Q6.59375 54.8281 13.0625 64.5156
Q19.5312 74.2188 31.7812 74.2188" id="BitstreamVeraSans-Roman-30"/>
      </defs>
      <g transform="translate(51.8615625 381.648)scale(0.12 -0.12)">
       <use xlink:href="#BitstreamVeraSans-Roman-30"/>
      </g>
     </g>
    </g>
    <g id="xtick_2">
     <g id="line2d_4">
      <g>
       <use style="stroke:#000000;stroke-linecap:butt;stroke-width:0.5;" x="118.656428571" xlink:href="#mcb557df647" y="368.74175"/>
      </g>
     </g>
     <g id="line2d_5">
      <g>
       <use style="stroke:#000000;stroke-linecap:butt;stroke-width:0.5;" x="118.656428571" xlink:href="#mdad270ee8e" y="23.14175"/>
      </g>
     </g>
     <g id="text_2">
      <!-- 1 -->
      <defs>
       <path d="
M12.4062 8.29688
L28.5156 8.29688
L28.5156 63.9219
L10.9844 60.4062
L10.9844 69.3906
L28.4219 72.9062
L38.2812 72.9062
L38.2812 8.29688
L54.3906 8.29688
L54.3906 0
L12.4062 0
z
" id="BitstreamVeraSans-Roman-31"/>
      </defs>
      <g transform="translate(116.052053571 381.4905)scale(0.12 -0.12)">
       <use xlink:href="#BitstreamVeraSans-Roman-31"/>
      </g>
     </g>
    </g>
    <g id="xtick_3">
     <g id="line2d_6">
      <g>
       <use style="stroke:#000000;stroke-linecap:butt;stroke-width:0.5;" x="182.427857143" xlink:href="#mcb557df647" y="368.74175"/>
      </g>
     </g>
     <g id="line2d_7">
      <g>
       <use style="stroke:#000000;stroke-linecap:butt;stroke-width:0.5;" x="182.427857143" xlink:href="#mdad270ee8e" y="23.14175"/>
      </g>
     </g>
     <g id="text_3">
      <!-- 2 -->
      <defs>
       <path d="
M19.1875 8.29688
L53.6094 8.29688
L53.6094 0
L7.32812 0
L7.32812 8.29688
Q12.9375 14.1094 22.625 23.8906
Q32.3281 33.6875 34.8125 36.5312
Q39.5469 41.8438 41.4219 45.5312
Q43.3125 49.2188 43.3125 52.7812
Q43.3125 58.5938 39.2344 62.25
Q35.1562 65.9219 28.6094 65.9219
Q23.9688 65.9219 18.8125 64.3125
Q13.6719 62.7031 7.8125 59.4219
L7.8125 69.3906
Q13.7656 71.7812 18.9375 73
Q24.125 74.2188 28.4219 74.2188
Q39.75 74.2188 46.4844 68.5469
Q53.2188 62.8906 53.2188 53.4219
Q53.2188 48.9219 51.5312 44.8906
Q49.8594 40.875 45.4062 35.4062
Q44.1875 33.9844 37.6406 27.2188
Q31.1094 20.4531 19.1875 8.29688" id="BitstreamVeraSans-Roman-32"/>
      </defs>
      <g transform="translate(179.650982143 381.648)scale(0.12 -0.12)">
       <use xlink:href="#BitstreamVeraSans-Roman-32"/>
      </g>
     </g>
    </g>
    <g id="xtick_4">
     <g id="line2d_8">
      <g>
       <use style="stroke:#000000;stroke-linecap:butt;stroke-width:0.5;" x="246.199285714" xlink:href="#mcb557df647" y="368.74175"/>
      </g>
     </g>
     <g id="line2d_9">
      <g>
       <use style="stroke:#000000;stroke-linecap:butt;stroke-width:0.5;" x="246.199285714" xlink:href="#mdad270ee8e" y="23.14175"/>
      </g>
     </g>
     <g id="text_4">
      <!-- 3 -->
      <defs>
       <path d="
M40.5781 39.3125
Q47.6562 37.7969 51.625 33
Q55.6094 28.2188 55.6094 21.1875
Q55.6094 10.4062 48.1875 4.48438
Q40.7656 -1.42188 27.0938 -1.42188
Q22.5156 -1.42188 17.6562 -0.515625
Q12.7969 0.390625 7.625 2.20312
L7.625 11.7188
Q11.7188 9.32812 16.5938 8.10938
Q21.4844 6.89062 26.8125 6.89062
Q36.0781 6.89062 40.9375 10.5469
Q45.7969 14.2031 45.7969 21.1875
Q45.7969 27.6406 41.2812 31.2656
Q36.7656 34.9062 28.7188 34.9062
L20.2188 34.9062
L20.2188 43.0156
L29.1094 43.0156
Q36.375 43.0156 40.2344 45.9219
Q44.0938 48.8281 44.0938 54.2969
Q44.0938 59.9062 40.1094 62.9062
Q36.1406 65.9219 28.7188 65.9219
Q24.6562 65.9219 20.0156 65.0312
Q15.375 64.1562 9.8125 62.3125
L9.8125 71.0938
Q15.4375 72.6562 20.3438 73.4375
Q25.25 74.2188 29.5938 74.2188
Q40.8281 74.2188 47.3594 69.1094
Q53.9062 64.0156 53.9062 55.3281
Q53.9062 49.2656 50.4375 45.0938
Q46.9688 40.9219 40.5781 39.3125" id="BitstreamVeraSans-Roman-33"/>
      </defs>
      <g transform="translate(243.320223214 381.648)scale(0.12 -0.12)">
       <use xlink:href="#BitstreamVeraSans-Roman-33"/>
      </g>
     </g>
    </g>
    <g id="xtick_5">
     <g id="line2d_10">
      <g>
       <use style="stroke:#000000;stroke-linecap:butt;stroke-width:0.5;" x="309.970714286" xlink:href="#mcb557df647" y="368.74175"/>
      </g>
     </g>
     <g id="line2d_11">
      <g>
       <use style="stroke:#000000;stroke-linecap:butt;stroke-width:0.5;" x="309.970714286" xlink:href="#mdad270ee8e" y="23.14175"/>
      </g>
     </g>
     <g id="text_5">
      <!-- 4 -->
      <defs>
       <path d="
M37.7969 64.3125
L12.8906 25.3906
L37.7969 25.3906
z

M35.2031 72.9062
L47.6094 72.9062
L47.6094 25.3906
L58.0156 25.3906
L58.0156 17.1875
L47.6094 17.1875
L47.6094 0
L37.7969 0
L37.7969 17.1875
L4.89062 17.1875
L4.89062 26.7031
z
" id="BitstreamVeraSans-Roman-34"/>
      </defs>
      <g transform="translate(306.783214286 381.4905)scale(0.12 -0.12)">
       <use xlink:href="#BitstreamVeraSans-Roman-34"/>
      </g>
     </g>
    </g>
    <g id="xtick_6">
     <g id="line2d_12">
      <g>
       <use style="stroke:#000000;stroke-linecap:butt;stroke-width:0.5;" x="373.742142857" xlink:href="#mcb557df647" y="368.74175"/>
      </g>
     </g>
     <g id="line2d_13">
      <g>
       <use style="stroke:#000000;stroke-linecap:butt;stroke-width:0.5;" x="373.742142857" xlink:href="#mdad270ee8e" y="23.14175"/>
      </g>
     </g>
     <g id="text_6">
      <!-- 5 -->
      <defs>
       <path d="
M10.7969 72.9062
L49.5156 72.9062
L49.5156 64.5938
L19.8281 64.5938
L19.8281 46.7344
Q21.9688 47.4688 24.1094 47.8281
Q26.2656 48.1875 28.4219 48.1875
Q40.625 48.1875 47.75 41.5
Q54.8906 34.8125 54.8906 23.3906
Q54.8906 11.625 47.5625 5.09375
Q40.2344 -1.42188 26.9062 -1.42188
Q22.3125 -1.42188 17.5469 -0.640625
Q12.7969 0.140625 7.71875 1.70312
L7.71875 11.625
Q12.1094 9.23438 16.7969 8.0625
Q21.4844 6.89062 26.7031 6.89062
Q35.1562 6.89062 40.0781 11.3281
Q45.0156 15.7656 45.0156 23.3906
Q45.0156 31 40.0781 35.4375
Q35.1562 39.8906 26.7031 39.8906
Q22.75 39.8906 18.8125 39.0156
Q14.8906 38.1406 10.7969 36.2812
z
" id="BitstreamVeraSans-Roman-35"/>
      </defs>
      <g transform="translate(370.911830357 381.4905)scale(0.12 -0.12)">
       <use xlink:href="#BitstreamVeraSans-Roman-35"/>
      </g>
     </g>
    </g>
    <g id="xtick_7">
     <g id="line2d_14">
      <g>
       <use style="stroke:#000000;stroke-linecap:butt;stroke-width:0.5;" x="437.513571429" xlink:href="#mcb557df647" y="368.74175"/>
      </g>
     </g>
     <g id="line2d_15">
      <g>
       <use style="stroke:#000000;stroke-linecap:butt;stroke-width:0.5;" x="437.513571429" xlink:href="#mdad270ee8e" y="23.14175"/>
      </g>
     </g>
     <g id="text_7">
      <!-- 6 -->
      <defs>
       <path d="
M33.0156 40.375
Q26.375 40.375 22.4844 35.8281
Q18.6094 31.2969 18.6094 23.3906
Q18.6094 15.5312 22.4844 10.9531
Q26.375 6.39062 33.0156 6.39062
Q39.6562 6.39062 43.5312 10.9531
Q47.4062 15.5312 47.4062 23.3906
Q47.4062 31.2969 43.5312 35.8281
Q39.6562 40.375 33.0156 40.375
M52.5938 71.2969
L52.5938 62.3125
Q48.875 64.0625 45.0938 64.9844
Q41.3125 65.9219 37.5938 65.9219
Q27.8281 65.9219 22.6719 59.3281
Q17.5312 52.7344 16.7969 39.4062
Q19.6719 43.6562 24.0156 45.9219
Q28.375 48.1875 33.5938 48.1875
Q44.5781 48.1875 50.9531 41.5156
Q57.3281 34.8594 57.3281 23.3906
Q57.3281 12.1562 50.6875 5.35938
Q44.0469 -1.42188 33.0156 -1.42188
Q20.3594 -1.42188 13.6719 8.26562
Q6.98438 17.9688 6.98438 36.375
Q6.98438 53.6562 15.1875 63.9375
Q23.3906 74.2188 37.2031 74.2188
Q40.9219 74.2188 44.7031 73.4844
Q48.4844 72.75 52.5938 71.2969" id="BitstreamVeraSans-Roman-36"/>
      </defs>
      <g transform="translate(434.492946429 381.648)scale(0.12 -0.12)">
       <use xlink:href="#BitstreamVeraSans-Roman-36"/>
      </g>
     </g>
    </g>
    <g id="xtick_8">
     <g id="line2d_16">
      <g>
       <use style="stroke:#000000;stroke-linecap:butt;stroke-width:0.5;" x="501.285" xlink:href="#mcb557df647" y="368.74175"/>
      </g>
     </g>
     <g id="line2d_17">
      <g>
       <use style="stroke:#000000;stroke-linecap:butt;stroke-width:0.5;" x="501.285" xlink:href="#mdad270ee8e" y="23.14175"/>
      </g>
     </g>
     <g id="text_8">
      <!-- 7 -->
      <defs>
       <path d="
M8.20312 72.9062
L55.0781 72.9062
L55.0781 68.7031
L28.6094 0
L18.3125 0
L43.2188 64.5938
L8.20312 64.5938
z
" id="BitstreamVeraSans-Roman-37"/>
      </defs>
      <g transform="translate(498.4725 381.4905)scale(0.12 -0.12)">
       <use xlink:href="#BitstreamVeraSans-Roman-37"/>
      </g>
     </g>
    </g>
    <g id="text_9">
     <!-- the x axis -->
     <defs>
      <path id="BitstreamVeraSans-Roman-20"/>
      <path d="
M9.42188 54.6875
L18.4062 54.6875
L18.4062 0
L9.42188 0
z

M9.42188 75.9844
L18.4062 75.9844
L18.4062 64.5938
L9.42188 64.5938
z
" id="BitstreamVeraSans-Roman-69"/>
      <path d="
M54.8906 33.0156
L54.8906 0
L45.9062 0
L45.9062 32.7188
Q45.9062 40.4844 42.875 44.3281
Q39.8438 48.1875 33.7969 48.1875
Q26.5156 48.1875 22.3125 43.5469
Q18.1094 38.9219 18.1094 30.9062
L18.1094 0
L9.07812 0
L9.07812 75.9844
L18.1094 75.9844
L18.1094 46.1875
Q21.3438 51.125 25.7031 53.5625
Q30.0781 56 35.7969 56
Q45.2188 56 50.0469 50.1719
Q54.8906 44.3438 54.8906 33.0156" id="BitstreamVeraSans-Roman-68"/>
      <path d="
M54.8906 54.6875
L35.1094 28.0781
L55.9062 0
L45.3125 0
L29.3906 21.4844
L13.4844 0
L2.875 0
L24.125 28.6094
L4.6875 54.6875
L15.2812 54.6875
L29.7812 35.2031
L44.2812 54.6875
z
" id="BitstreamVeraSans-Roman-78"/>
      <path d="
M56.2031 29.5938
L56.2031 25.2031
L14.8906 25.2031
Q15.4844 15.9219 20.4844 11.0625
Q25.4844 6.20312 34.4219 6.20312
Q39.5938 6.20312 44.4531 7.46875
Q49.3125 8.73438 54.1094 11.2812
L54.1094 2.78125
Q49.2656 0.734375 44.1875 -0.34375
Q39.1094 -1.42188 33.8906 -1.42188
Q20.7969 -1.42188 13.1562 6.1875
Q5.51562 13.8125 5.51562 26.8125
Q5.51562 40.2344 12.7656 48.1094
Q20.0156 56 32.3281 56
Q43.3594 56 49.7812 48.8906
Q56.2031 41.7969 56.2031 29.5938
M47.2188 32.2344
Q47.125 39.5938 43.0938 43.9844
Q39.0625 48.3906 32.4219 48.3906
Q24.9062 48.3906 20.3906 44.1406
Q15.875 39.8906 15.1875 32.1719
z
" id="BitstreamVeraSans-Roman-65"/>
      <path d="
M18.3125 70.2188
L18.3125 54.6875
L36.8125 54.6875
L36.8125 47.7031
L18.3125 47.7031
L18.3125 18.0156
Q18.3125 11.3281 20.1406 9.42188
Q21.9688 7.51562 27.5938 7.51562
L36.8125 7.51562
L36.8125 0
L27.5938 0
Q17.1875 0 13.2344 3.875
Q9.28125 7.76562 9.28125 18.0156
L9.28125 47.7031
L2.6875 47.7031
L2.6875 54.6875
L9.28125 54.6875
L9.28125 70.2188
z
" id="BitstreamVeraSans-Roman-74"/>
      <path d="
M34.2812 27.4844
Q23.3906 27.4844 19.1875 25
Q14.9844 22.5156 14.9844 16.5
Q14.9844 11.7188 18.1406 8.90625
Q21.2969 6.10938 26.7031 6.10938
Q34.1875 6.10938 38.7031 11.4062
Q43.2188 16.7031 43.2188 25.4844
L43.2188 27.4844
z

M52.2031 31.2031
L52.2031 0
L43.2188 0
L43.2188 8.29688
Q40.1406 3.32812 35.5469 0.953125
Q30.9531 -1.42188 24.3125 -1.42188
Q15.9219 -1.42188 10.9531 3.29688
Q6 8.01562 6 15.9219
Q6 25.1406 12.1719 29.8281
Q18.3594 34.5156 30.6094 34.5156
L43.2188 34.5156
L43.2188 35.4062
Q43.2188 41.6094 39.1406 45
Q35.0625 48.3906 27.6875 48.3906
Q23 48.3906 18.5469 47.2656
Q14.1094 46.1406 10.0156 43.8906
L10.0156 52.2031
Q14.9375 54.1094 19.5781 55.0469
Q24.2188 56 28.6094 56
Q40.4844 56 46.3438 49.8438
Q52.2031 43.7031 52.2031 31.2031" id="BitstreamVeraSans-Roman-61"/>
      <path d="
M44.2812 53.0781
L44.2812 44.5781
Q40.4844 46.5312 36.375 47.5
Q32.2812 48.4844 27.875 48.4844
Q21.1875 48.4844 17.8438 46.4375
Q14.5 44.3906 14.5 40.2812
Q14.5 37.1562 16.8906 35.375
Q19.2812 33.5938 26.5156 31.9844
L29.5938 31.2969
Q39.1562 29.25 43.1875 25.5156
Q47.2188 21.7812 47.2188 15.0938
Q47.2188 7.46875 41.1875 3.01562
Q35.1562 -1.42188 24.6094 -1.42188
Q20.2188 -1.42188 15.4531 -0.5625
Q10.6875 0.296875 5.42188 2
L5.42188 11.2812
Q10.4062 8.6875 15.2344 7.39062
Q20.0625 6.10938 24.8125 6.10938
Q31.1562 6.10938 34.5625 8.28125
Q37.9844 10.4531 37.9844 14.4062
Q37.9844 18.0625 35.5156 20.0156
Q33.0625 21.9688 24.7031 23.7812
L21.5781 24.5156
Q13.2344 26.2656 9.51562 29.9062
Q5.8125 33.5469 5.8125 39.8906
Q5.8125 47.6094 11.2812 51.7969
Q16.75 56 26.8125 56
Q31.7812 56 36.1719 55.2656
Q40.5781 54.5469 44.2812 53.0781" id="BitstreamVeraSans-Roman-73"/>
     </defs>
     <g transform="translate(249.1453125 395.93675)scale(0.12 -0.12)">
      <use xlink:href="#BitstreamVeraSans-Roman-74"/>
      <use x="39.208984375" xlink:href="#BitstreamVeraSans-Roman-68"/>
      <use x="102.587890625" xlink:href="#BitstreamVeraSans-Roman-65"/>
      <use x="164.111328125" xlink:href="#BitstreamVeraSans-Roman-20"/>
      <use x="195.8984375" xlink:href="#BitstreamVeraSans-Roman-78"/>
      <use x="255.078125" xlink:href="#BitstreamVeraSans-Roman-20"/>
      <use x="286.865234375" xlink:href="#BitstreamVeraSans-Roman-61"/>
      <use x="348.14453125" xlink:href="#BitstreamVeraSans-Roman-78"/>
      <use x="407.32421875" xlink:href="#BitstreamVeraSans-Roman-69"/>
      <use x="435.107421875" xlink:href="#BitstreamVeraSans-Roman-73"/>
     </g>
    </g>
   </g>
   <g id="matplotlib.axis_2">
    <g id="ytick_1">
     <g id="line2d_18">
      <defs>
       <path d="
M0 0
L4 0" id="mc8fcea1516" style="stroke:#000000;stroke-linecap:butt;stroke-width:0.5;"/>
      </defs>
      <g>
       <use style="stroke:#000000;stroke-linecap:butt;stroke-width:0.5;" x="54.885" xlink:href="#mc8fcea1516" y="368.74175"/>
      </g>
     </g>
     <g id="line2d_19">
      <defs>
       <path d="
M0 0
L-4 0" id="m0d5b0a6425" style="stroke:#000000;stroke-linecap:butt;stroke-width:0.5;"/>
      </defs>
      <g>
       <use style="stroke:#000000;stroke-linecap:butt;stroke-width:0.5;" x="501.285" xlink:href="#m0d5b0a6425" y="368.74175"/>
      </g>
     </g>
     <g id="text_10">
      <!-- −1.0 -->
      <defs>
       <path d="
M10.5938 35.5
L73.1875 35.5
L73.1875 27.2031
L10.5938 27.2031
z
" id="BitstreamVeraSans-Roman-2212"/>
       <path d="
M10.6875 12.4062
L21 12.4062
L21 0
L10.6875 0
z
" id="BitstreamVeraSans-Roman-2e"/>
      </defs>
      <g transform="translate(23.81375 373.1095625)scale(0.12 -0.12)">
       <use xlink:href="#BitstreamVeraSans-Roman-2212"/>
       <use x="83.7890625" xlink:href="#BitstreamVeraSans-Roman-31"/>
       <use x="147.412109375" xlink:href="#BitstreamVeraSans-Roman-2e"/>
       <use x="179.19921875" xlink:href="#BitstreamVeraSans-Roman-30"/>
      </g>
     </g>
    </g>
    <g id="ytick_2">
     <g id="line2d_20">
      <g>
       <use style="stroke:#000000;stroke-linecap:butt;stroke-width:0.5;" x="54.885" xlink:href="#mc8fcea1516" y="282.34175"/>
      </g>
     </g>
     <g id="line2d_21">
      <g>
       <use style="stroke:#000000;stroke-linecap:butt;stroke-width:0.5;" x="501.285" xlink:href="#m0d5b0a6425" y="282.34175"/>
      </g>
     </g>
     <g id="text_11">
      <!-- −0.5 -->
      <g transform="translate(24.065 286.7095625)scale(0.12 -0.12)">
       <use xlink:href="#BitstreamVeraSans-Roman-2212"/>
       <use x="83.7890625" xlink:href="#BitstreamVeraSans-Roman-30"/>
       <use x="147.412109375" xlink:href="#BitstreamVeraSans-Roman-2e"/>
       <use x="179.19921875" xlink:href="#BitstreamVeraSans-Roman-35"/>
      </g>
     </g>
    </g>
    <g id="ytick_3">
     <g id="line2d_22">
      <g>
       <use style="stroke:#000000;stroke-linecap:butt;stroke-width:0.5;" x="54.885" xlink:href="#mc8fcea1516" y="195.94175"/>
      </g>
     </g>
     <g id="line2d_23">
      <g>
       <use style="stroke:#000000;stroke-linecap:butt;stroke-width:0.5;" x="501.285" xlink:href="#m0d5b0a6425" y="195.94175"/>
      </g>
     </g>
     <g id="text_12">
      <!-- 0.0 -->
      <g transform="translate(33.389375 200.3095625)scale(0.12 -0.12)">
       <use xlink:href="#BitstreamVeraSans-Roman-30"/>
       <use x="63.623046875" xlink:href="#BitstreamVeraSans-Roman-2e"/>
       <use x="95.41015625" xlink:href="#BitstreamVeraSans-Roman-30"/>
      </g>
     </g>
    </g>
    <g id="ytick_4">
     <g id="line2d_24">
      <g>
       <use style="stroke:#000000;stroke-linecap:butt;stroke-width:0.5;" x="54.885" xlink:href="#mc8fcea1516" y="109.54175"/>
      </g>
     </g>
     <g id="line2d_25">
      <g>
       <use style="stroke:#000000;stroke-linecap:butt;stroke-width:0.5;" x="501.285" xlink:href="#m0d5b0a6425" y="109.54175"/>
      </g>
     </g>
     <g id="text_13">
      <!-- 0.5 -->
      <g transform="translate(33.640625 113.9095625)scale(0.12 -0.12)">
       <use xlink:href="#BitstreamVeraSans-Roman-30"/>
       <use x="63.623046875" xlink:href="#BitstreamVeraSans-Roman-2e"/>
       <use x="95.41015625" xlink:href="#BitstreamVeraSans-Roman-35"/>
      </g>
     </g>
    </g>
    <g id="ytick_5">
     <g id="line2d_26">
      <g>
       <use style="stroke:#000000;stroke-linecap:butt;stroke-width:0.5;" x="54.885" xlink:href="#mc8fcea1516" y="23.14175"/>
      </g>
     </g>
     <g id="line2d_27">
      <g>
       <use style="stroke:#000000;stroke-linecap:butt;stroke-width:0.5;" x="501.285" xlink:href="#m0d5b0a6425" y="23.14175"/>
      </g>
     </g>
     <g id="text_14">
      <!-- 1.0 -->
      <g transform="translate(33.91625 27.5095625)scale(0.12 -0.12)">
       <use xlink:href="#BitstreamVeraSans-Roman-31"/>
       <use x="63.623046875" xlink:href="#BitstreamVeraSans-Roman-2e"/>
       <use x="95.41015625" xlink:href="#BitstreamVeraSans-Roman-30"/>
      </g>
     </g>
    </g>
    <g id="text_15">
     <!-- the y axis -->
     <defs>
      <path d="
M32.1719 -5.07812
Q28.375 -14.8438 24.75 -17.8125
Q21.1406 -20.7969 15.0938 -20.7969
L7.90625 -20.7969
L7.90625 -13.2812
L13.1875 -13.2812
Q16.8906 -13.2812 18.9375 -11.5156
Q21 -9.76562 23.4844 -3.21875
L25.0938 0.875
L2.98438 54.6875
L12.5 54.6875
L29.5938 11.9219
L46.6875 54.6875
L56.2031 54.6875
z
" id="BitstreamVeraSans-Roman-79"/>
     </defs>
     <g transform="translate(18.81375 222.3858125)rotate(-90.0)scale(0.12 -0.12)">
      <use xlink:href="#BitstreamVeraSans-Roman-74"/>
      <use x="39.208984375" xlink:href="#BitstreamVeraSans-Roman-68"/>
      <use x="102.587890625" xlink:href="#BitstreamVeraSans-Roman-65"/>
      <use x="164.111328125" xlink:href="#BitstreamVeraSans-Roman-20"/>
      <use x="195.8984375" xlink:href="#BitstreamVeraSans-Roman-79"/>
      <use x="255.078125" xlink:href="#BitstreamVeraSans-Roman-20"/>
      <use x="286.865234375" xlink:href="#BitstreamVeraSans-Roman-61"/>
      <use x="348.14453125" xlink:href="#BitstreamVeraSans-Roman-78"/>
      <use x="407.32421875" xlink:href="#BitstreamVeraSans-Roman-69"/>
      <use x="435.107421875" xlink:href="#BitstreamVeraSans-Roman-73"/>
     </g>
    </g>
   </g>
   <g id="patch_3">
    <path d="
M54.885 23.1417
L501.285 23.1417" style="fill:none;stroke:#000000;"/>
   </g>
   <g id="patch_4">
    <path d="
M501.285 368.742
L501.285 23.1417" style="fill:none;stroke:#000000;"/>
   </g>
   <g id="patch_5">
    <path d="
M54.885 368.742
L501.285 368.742" style="fill:none;stroke:#000000;"/>
   </g>
   <g id="patch_6">
    <path d="
M54.885 368.742
L54.885 23.1417" style="fill:none;stroke:#000000;"/>
   </g>
   <g id="text_16">
    <!-- a sinusoidally-modulated sinusoid -->
    <defs>
     <path d="
M54.8906 33.0156
L54.8906 0
L45.9062 0
L45.9062 32.7188
Q45.9062 40.4844 42.875 44.3281
Q39.8438 48.1875 33.7969 48.1875
Q26.5156 48.1875 22.3125 43.5469
Q18.1094 38.9219 18.1094 30.9062
L18.1094 0
L9.07812 0
L9.07812 54.6875
L18.1094 54.6875
L18.1094 46.1875
Q21.3438 51.125 25.7031 53.5625
Q30.0781 56 35.7969 56
Q45.2188 56 50.0469 50.1719
Q54.8906 44.3438 54.8906 33.0156" id="BitstreamVeraSans-Roman-6e"/>
     <path d="
M52 44.1875
Q55.375 50.25 60.0625 53.125
Q64.75 56 71.0938 56
Q79.6406 56 84.2812 50.0156
Q88.9219 44.0469 88.9219 33.0156
L88.9219 0
L79.8906 0
L79.8906 32.7188
Q79.8906 40.5781 77.0938 44.375
Q74.3125 48.1875 68.6094 48.1875
Q61.625 48.1875 57.5625 43.5469
Q53.5156 38.9219 53.5156 30.9062
L53.5156 0
L44.4844 0
L44.4844 32.7188
Q44.4844 40.625 41.7031 44.4062
Q38.9219 48.1875 33.1094 48.1875
Q26.2188 48.1875 22.1562 43.5312
Q18.1094 38.875 18.1094 30.9062
L18.1094 0
L9.07812 0
L9.07812 54.6875
L18.1094 54.6875
L18.1094 46.1875
Q21.1875 51.2188 25.4844 53.6094
Q29.7812 56 35.6875 56
Q41.6562 56 45.8281 52.9688
Q50 49.9531 52 44.1875" id="BitstreamVeraSans-Roman-6d"/>
     <path d="
M30.6094 48.3906
Q23.3906 48.3906 19.1875 42.75
Q14.9844 37.1094 14.9844 27.2969
Q14.9844 17.4844 19.1562 11.8438
Q23.3438 6.20312 30.6094 6.20312
Q37.7969 6.20312 41.9844 11.8594
Q46.1875 17.5312 46.1875 27.2969
Q46.1875 37.0156 41.9844 42.7031
Q37.7969 48.3906 30.6094 48.3906
M30.6094 56
Q42.3281 56 49.0156 48.375
Q55.7188 40.7656 55.7188 27.2969
Q55.7188 13.875 49.0156 6.21875
Q42.3281 -1.42188 30.6094 -1.42188
Q18.8438 -1.42188 12.1719 6.21875
Q5.51562 13.875 5.51562 27.2969
Q5.51562 40.7656 12.1719 48.375
Q18.8438 56 30.6094 56" id="BitstreamVeraSans-Roman-6f"/>
     <path d="
M9.42188 75.9844
L18.4062 75.9844
L18.4062 0
L9.42188 0
z
" id="BitstreamVeraSans-Roman-6c"/>
     <path d="
M4.89062 31.3906
L31.2031 31.3906
L31.2031 23.3906
L4.89062 23.3906
z
" id="BitstreamVeraSans-Roman-2d"/>
     <path d="
M45.4062 46.3906
L45.4062 75.9844
L54.3906 75.9844
L54.3906 0
L45.4062 0
L45.4062 8.20312
Q42.5781 3.32812 38.25 0.953125
Q33.9375 -1.42188 27.875 -1.42188
Q17.9688 -1.42188 11.7344 6.48438
Q5.51562 14.4062 5.51562 27.2969
Q5.51562 40.1875 11.7344 48.0938
Q17.9688 56 27.875 56
Q33.9375 56 38.25 53.625
Q42.5781 51.2656 45.4062 46.3906
M14.7969 27.2969
Q14.7969 17.3906 18.875 11.75
Q22.9531 6.10938 30.0781 6.10938
Q37.2031 6.10938 41.2969 11.75
Q45.4062 17.3906 45.4062 27.2969
Q45.4062 37.2031 41.2969 42.8438
Q37.2031 48.4844 30.0781 48.4844
Q22.9531 48.4844 18.875 42.8438
Q14.7969 37.2031 14.7969 27.2969" id="BitstreamVeraSans-Roman-64"/>
     <path d="
M8.5 21.5781
L8.5 54.6875
L17.4844 54.6875
L17.4844 21.9219
Q17.4844 14.1562 20.5 10.2656
Q23.5312 6.39062 29.5938 6.39062
Q36.8594 6.39062 41.0781 11.0312
Q45.3125 15.6719 45.3125 23.6875
L45.3125 54.6875
L54.2969 54.6875
L54.2969 0
L45.3125 0
L45.3125 8.40625
Q42.0469 3.42188 37.7188 1
Q33.4062 -1.42188 27.6875 -1.42188
Q18.2656 -1.42188 13.375 4.4375
Q8.5 10.2969 8.5 21.5781" id="BitstreamVeraSans-Roman-75"/>
    </defs>
    <g transform="translate(156.6075 18.14175)scale(0.144 -0.144)">
     <use xlink:href="#BitstreamVeraSans-Roman-61"/>
     <use x="61.279296875" xlink:href="#BitstreamVeraSans-Roman-20"/>
     <use x="93.06640625" xlink:href="#BitstreamVeraSans-Roman-73"/>
     <use x="145.166015625" xlink:href="#BitstreamVeraSans-Roman-69"/>
     <use x="172.94921875" xlink:href="#BitstreamVeraSans-Roman-6e"/>
     <use x="236.328125" xlink:href="#BitstreamVeraSans-Roman-75"/>
     <use x="299.70703125" xlink:href="#BitstreamVeraSans-Roman-73"/>
     <use x="351.806640625" xlink:href="#BitstreamVeraSans-Roman-6f"/>
     <use x="412.98828125" xlink:href="#BitstreamVeraSans-Roman-69"/>
     <use x="440.771484375" xlink:href="#BitstreamVeraSans-Roman-64"/>
     <use x="504.248046875" xlink:href="#BitstreamVeraSans-Roman-61"/>
     <use x="565.52734375" xlink:href="#BitstreamVeraSans-Roman-6c"/>
     <use x="593.310546875" xlink:href="#BitstreamVeraSans-Roman-6c"/>
     <use x="621.09375" xlink:href="#BitstreamVeraSans-Roman-79"/>
     <use x="678.5234375" xlink:href="#BitstreamVeraSans-Roman-2d"/>
     <use x="714.607421875" xlink:href="#BitstreamVeraSans-Roman-6d"/>
     <use x="812.01953125" xlink:href="#BitstreamVeraSans-Roman-6f"/>
     <use x="873.201171875" xlink:href="#BitstreamVeraSans-Roman-64"/>
     <use x="936.677734375" xlink:href="#BitstreamVeraSans-Roman-75"/>
     <use x="1000.05664062" xlink:href="#BitstreamVeraSans-Roman-6c"/>
     <use x="1027.83984375" xlink:href="#BitstreamVeraSans-Roman-61"/>
     <use x="1089.11914062" xlink:href="#BitstreamVeraSans-Roman-74"/>
     <use x="1128.328125" xlink:href="#BitstreamVeraSans-Roman-65"/>
     <use x="1189.8515625" xlink:href="#BitstreamVeraSans-Roman-64"/>
     <use x="1253.328125" xlink:href="#BitstreamVeraSans-Roman-20"/>
     <use x="1285.11523438" xlink:href="#BitstreamVeraSans-Roman-73"/>
     <use x="1337.21484375" xlink:href="#BitstreamVeraSans-Roman-69"/>
     <use x="1364.99804688" xlink:href="#BitstreamVeraSans-Roman-6e"/>
     <use x="1428.37695312" xlink:href="#BitstreamVeraSans-Roman-75"/>
     <use x="1491.75585938" xlink:href="#BitstreamVeraSans-Roman-73"/>
     <use x="1543.85546875" xlink:href="#BitstreamVeraSans-Roman-6f"/>
     <use x="1605.03710938" xlink:href="#BitstreamVeraSans-Roman-69"/>
     <use x="1632.8203125" xlink:href="#BitstreamVeraSans-Roman-64"/>
    </g>
   </g>
  </g>
 </g>
 <defs>
  <clipPath id="p2dd505b008">
   <rect height="345.6" width="446.4" x="54.885" y="23.14175"/>
  </clipPath>
 </defs>
</svg>
